<svg xmlns="http://www.w3.org/2000/svg" viewBox="0 0 500 500">
  <style>
    .text { font-family: 'Gothic', serif; font-size: 70px; font-weight: bold; }
    .decorative { fill: none; stroke: #000; stroke-width: 2; }
    .ornament { fill: none; stroke: #000; stroke-width: 1.5; }
  </style>
  <rect width="100%" height="100%" fill="white"/>
  <g transform="translate(250, 250)">
    <ellipse cx="0" cy="0" rx="200" ry="120" class="decorative" />
    <text x="0" y="0" class="text" text-anchor="middle" dominant-baseline="middle">Jack</text>
    <text x="0" y="70" class="text" text-anchor="middle" dominant-baseline="middle">Rose</text>
    <path class="ornament" d="M-180,0 C-150,-30 -100,-40 0,-40 C100,-40 150,-30 180,0" />
    <path class="ornament" d="M-180,0 C-150,30 -100,40 0,40 C100,40 150,30 180,0" />
    <path class="ornament" d="M0,-100 C-20,-80 -20,-60 0,-40 C20,-60 20,-80 0,-100" />
    <path class="ornament" d="M0,100 C-20,80 -20,60 0,40 C20,60 20,80 0,100" />
  </g>
</svg> 